<mxfile host="app.diagrams.net" agent="Mozilla/5.0 (Windows NT 10.0; Win64; x64) AppleWebKit/537.36 (KHTML, like Gecko) Chrome/133.0.0.0 Safari/537.36 Edg/133.0.0.0" version="26.0.13">
  <diagram name="Страница — 1" id="_4h1G4QD8ntUAVt3dMhs">
    <mxGraphModel dx="1508" dy="686" grid="1" gridSize="10" guides="1" tooltips="1" connect="1" arrows="1" fold="1" page="1" pageScale="1" pageWidth="1654" pageHeight="1169" math="0" shadow="0">
      <root>
        <mxCell id="0" />
        <mxCell id="1" parent="0" />
        <mxCell id="cLPIgAtYv4cvL5bpsOwm-1" value="" style="endArrow=classic;html=1;rounded=0;entryX=0;entryY=0.5;entryDx=0;entryDy=0;exitX=1;exitY=0.3333333333333333;exitDx=0;exitDy=0;exitPerimeter=0;" edge="1" parent="1" source="VL6FZ6M-wxKTbL_TC3Xj-18" target="VL6FZ6M-wxKTbL_TC3Xj-44">
          <mxGeometry width="50" height="50" relative="1" as="geometry">
            <mxPoint x="150" y="310" as="sourcePoint" />
            <mxPoint x="200" y="260" as="targetPoint" />
          </mxGeometry>
        </mxCell>
        <mxCell id="VL6FZ6M-wxKTbL_TC3Xj-1" value="Зарегистрированный&lt;div&gt;пользователь&lt;/div&gt;" style="shape=umlActor;verticalLabelPosition=bottom;verticalAlign=top;html=1;outlineConnect=0;" parent="1" vertex="1">
          <mxGeometry x="210" y="400" width="30" height="60" as="geometry" />
        </mxCell>
        <mxCell id="VL6FZ6M-wxKTbL_TC3Xj-3" value="Незарегистрированный&lt;div&gt;пользователь&lt;/div&gt;" style="shape=umlActor;verticalLabelPosition=bottom;verticalAlign=top;html=1;outlineConnect=0;" parent="1" vertex="1">
          <mxGeometry x="590" y="405" width="30" height="60" as="geometry" />
        </mxCell>
        <mxCell id="VL6FZ6M-wxKTbL_TC3Xj-5" value="&lt;font style=&quot;font-size: 10px;&quot;&gt;Оценка фильмов&lt;/font&gt;" style="ellipse;whiteSpace=wrap;html=1;" parent="1" vertex="1">
          <mxGeometry x="390" y="350" width="80" height="41" as="geometry" />
        </mxCell>
        <mxCell id="VL6FZ6M-wxKTbL_TC3Xj-6" value="&lt;font style=&quot;font-size: 10px;&quot;&gt;Статистика посещаемости кинотеатра&lt;/font&gt;" style="ellipse;whiteSpace=wrap;html=1;" parent="1" vertex="1">
          <mxGeometry x="360" y="620" width="110" height="60" as="geometry" />
        </mxCell>
        <mxCell id="VL6FZ6M-wxKTbL_TC3Xj-7" value="&lt;font style=&quot;font-size: 10px;&quot;&gt;Просмотр количества купленных билетов и остатка&lt;/font&gt;" style="ellipse;whiteSpace=wrap;html=1;" parent="1" vertex="1">
          <mxGeometry x="590" y="160" width="120" height="60" as="geometry" />
        </mxCell>
        <mxCell id="VL6FZ6M-wxKTbL_TC3Xj-10" value="&lt;font style=&quot;font-size: 10px;&quot;&gt;Система предложений оценок и отзывов&lt;/font&gt;" style="ellipse;whiteSpace=wrap;html=1;" parent="1" vertex="1">
          <mxGeometry x="360" y="525" width="110" height="60" as="geometry" />
        </mxCell>
        <mxCell id="VL6FZ6M-wxKTbL_TC3Xj-11" value="&lt;font style=&quot;font-size: 10px;&quot;&gt;Бот для быстрого ответа клиентам на базовые вопросы&lt;/font&gt;" style="ellipse;whiteSpace=wrap;html=1;" parent="1" vertex="1">
          <mxGeometry x="360" y="460" width="110" height="60" as="geometry" />
        </mxCell>
        <mxCell id="VL6FZ6M-wxKTbL_TC3Xj-12" value="&lt;font style=&quot;font-size: 10px;&quot;&gt;Общая статистика посещаемости сайта&lt;/font&gt;" style="ellipse;whiteSpace=wrap;html=1;" parent="1" vertex="1">
          <mxGeometry x="400" y="720" width="110" height="60" as="geometry" />
        </mxCell>
        <mxCell id="VL6FZ6M-wxKTbL_TC3Xj-13" value="&lt;font style=&quot;font-size: 10px;&quot;&gt;Уведомления о технических проблемах&lt;/font&gt;" style="ellipse;whiteSpace=wrap;html=1;" parent="1" vertex="1">
          <mxGeometry x="510" y="550" width="110" height="60" as="geometry" />
        </mxCell>
        <mxCell id="VL6FZ6M-wxKTbL_TC3Xj-14" value="&lt;font style=&quot;font-size: 10px;&quot;&gt;Просмотр доступных фильмов&lt;/font&gt;" style="ellipse;whiteSpace=wrap;html=1;" parent="1" vertex="1">
          <mxGeometry x="380" y="405" width="110" height="50" as="geometry" />
        </mxCell>
        <mxCell id="VL6FZ6M-wxKTbL_TC3Xj-16" value="Адиминистратор" style="shape=umlActor;verticalLabelPosition=bottom;verticalAlign=top;html=1;outlineConnect=0;" parent="1" vertex="1">
          <mxGeometry x="210" y="641" width="30" height="60" as="geometry" />
        </mxCell>
        <mxCell id="VL6FZ6M-wxKTbL_TC3Xj-17" value="Кассир" style="shape=umlActor;verticalLabelPosition=bottom;verticalAlign=top;html=1;outlineConnect=0;" parent="1" vertex="1">
          <mxGeometry x="750" y="260" width="30" height="60" as="geometry" />
        </mxCell>
        <mxCell id="VL6FZ6M-wxKTbL_TC3Xj-18" value="Контолер" style="shape=umlActor;verticalLabelPosition=bottom;verticalAlign=top;html=1;outlineConnect=0;" parent="1" vertex="1">
          <mxGeometry x="240" y="240" width="30" height="60" as="geometry" />
        </mxCell>
        <mxCell id="VL6FZ6M-wxKTbL_TC3Xj-21" value="Менеджер&amp;nbsp;&lt;div&gt;по продажам&lt;/div&gt;" style="shape=umlActor;verticalLabelPosition=bottom;verticalAlign=top;html=1;outlineConnect=0;" parent="1" vertex="1">
          <mxGeometry x="620" y="701" width="30" height="60" as="geometry" />
        </mxCell>
        <mxCell id="VL6FZ6M-wxKTbL_TC3Xj-22" value="Менеджер по работе&amp;nbsp;&lt;div&gt;с клиентами&lt;/div&gt;" style="shape=umlActor;verticalLabelPosition=bottom;verticalAlign=top;html=1;outlineConnect=0;" parent="1" vertex="1">
          <mxGeometry x="210" y="761" width="30" height="60" as="geometry" />
        </mxCell>
        <mxCell id="VL6FZ6M-wxKTbL_TC3Xj-23" value="Технический специалист" style="shape=umlActor;verticalLabelPosition=bottom;verticalAlign=top;html=1;outlineConnect=0;" parent="1" vertex="1">
          <mxGeometry x="650" y="581" width="30" height="60" as="geometry" />
        </mxCell>
        <mxCell id="VL6FZ6M-wxKTbL_TC3Xj-32" value="&lt;span style=&quot;font-size: 10px;&quot;&gt;Информация в личном кабинете&lt;/span&gt;" style="ellipse;whiteSpace=wrap;html=1;" parent="1" vertex="1">
          <mxGeometry x="320" y="300" width="100" height="40" as="geometry" />
        </mxCell>
        <mxCell id="VL6FZ6M-wxKTbL_TC3Xj-38" value="&lt;span style=&quot;font-size: 10px;&quot;&gt;Просмотр истории просмотренных фильмов&lt;/span&gt;" style="ellipse;whiteSpace=wrap;html=1;" parent="1" vertex="1">
          <mxGeometry x="510" y="240" width="110" height="60" as="geometry" />
        </mxCell>
        <mxCell id="VL6FZ6M-wxKTbL_TC3Xj-44" value="&lt;span style=&quot;font-size: 10px;&quot;&gt;&amp;nbsp;Информация о покупке билета в личном кабинете&amp;nbsp;&lt;/span&gt;" style="ellipse;whiteSpace=wrap;html=1;" parent="1" vertex="1">
          <mxGeometry x="470" y="180" width="110" height="60" as="geometry" />
        </mxCell>
        <mxCell id="VL6FZ6M-wxKTbL_TC3Xj-48" value="&lt;span style=&quot;font-size: 10px;&quot;&gt;Просмотр истории просмотренных фильмов&lt;/span&gt;" style="ellipse;whiteSpace=wrap;html=1;" parent="1" vertex="1">
          <mxGeometry x="340" y="190" width="110" height="60" as="geometry" />
        </mxCell>
        <mxCell id="cLPIgAtYv4cvL5bpsOwm-3" value="" style="endArrow=classic;html=1;rounded=0;entryX=1;entryY=1;entryDx=0;entryDy=0;exitX=0;exitY=0.3333333333333333;exitDx=0;exitDy=0;exitPerimeter=0;" edge="1" parent="1" source="VL6FZ6M-wxKTbL_TC3Xj-17" target="VL6FZ6M-wxKTbL_TC3Xj-7">
          <mxGeometry width="50" height="50" relative="1" as="geometry">
            <mxPoint x="800" y="370" as="sourcePoint" />
            <mxPoint x="850" y="320" as="targetPoint" />
          </mxGeometry>
        </mxCell>
        <mxCell id="cLPIgAtYv4cvL5bpsOwm-5" value="" style="endArrow=classic;html=1;rounded=0;entryX=1;entryY=0.5;entryDx=0;entryDy=0;exitX=0;exitY=0.3333333333333333;exitDx=0;exitDy=0;exitPerimeter=0;" edge="1" parent="1" source="VL6FZ6M-wxKTbL_TC3Xj-17" target="VL6FZ6M-wxKTbL_TC3Xj-44">
          <mxGeometry width="50" height="50" relative="1" as="geometry">
            <mxPoint x="630" y="360" as="sourcePoint" />
            <mxPoint x="680" y="310" as="targetPoint" />
          </mxGeometry>
        </mxCell>
        <mxCell id="cLPIgAtYv4cvL5bpsOwm-7" value="" style="endArrow=classic;html=1;rounded=0;entryX=0;entryY=0.5;entryDx=0;entryDy=0;exitX=1;exitY=0.3333333333333333;exitDx=0;exitDy=0;exitPerimeter=0;" edge="1" parent="1" source="VL6FZ6M-wxKTbL_TC3Xj-1" target="VL6FZ6M-wxKTbL_TC3Xj-32">
          <mxGeometry width="50" height="50" relative="1" as="geometry">
            <mxPoint x="220" y="430" as="sourcePoint" />
            <mxPoint x="270" y="380" as="targetPoint" />
          </mxGeometry>
        </mxCell>
        <mxCell id="cLPIgAtYv4cvL5bpsOwm-9" value="" style="endArrow=classic;html=1;rounded=0;entryX=0;entryY=0.5;entryDx=0;entryDy=0;exitX=1;exitY=0.3333333333333333;exitDx=0;exitDy=0;exitPerimeter=0;" edge="1" parent="1" source="VL6FZ6M-wxKTbL_TC3Xj-1" target="VL6FZ6M-wxKTbL_TC3Xj-5">
          <mxGeometry width="50" height="50" relative="1" as="geometry">
            <mxPoint x="280" y="440" as="sourcePoint" />
            <mxPoint x="330" y="390" as="targetPoint" />
          </mxGeometry>
        </mxCell>
        <mxCell id="cLPIgAtYv4cvL5bpsOwm-10" value="" style="endArrow=classic;html=1;rounded=0;entryX=0;entryY=0.5;entryDx=0;entryDy=0;exitX=1;exitY=0.3333333333333333;exitDx=0;exitDy=0;exitPerimeter=0;" edge="1" parent="1" source="VL6FZ6M-wxKTbL_TC3Xj-1" target="VL6FZ6M-wxKTbL_TC3Xj-14">
          <mxGeometry width="50" height="50" relative="1" as="geometry">
            <mxPoint x="290" y="450" as="sourcePoint" />
            <mxPoint x="340" y="400" as="targetPoint" />
          </mxGeometry>
        </mxCell>
        <mxCell id="cLPIgAtYv4cvL5bpsOwm-11" value="" style="endArrow=classic;html=1;rounded=0;exitX=1;exitY=0.3333333333333333;exitDx=0;exitDy=0;exitPerimeter=0;entryX=0;entryY=0.5;entryDx=0;entryDy=0;" edge="1" parent="1" source="VL6FZ6M-wxKTbL_TC3Xj-1" target="VL6FZ6M-wxKTbL_TC3Xj-11">
          <mxGeometry width="50" height="50" relative="1" as="geometry">
            <mxPoint x="300" y="460" as="sourcePoint" />
            <mxPoint x="350" y="410" as="targetPoint" />
          </mxGeometry>
        </mxCell>
        <mxCell id="cLPIgAtYv4cvL5bpsOwm-12" value="" style="endArrow=classic;html=1;rounded=0;exitX=1;exitY=0.3333333333333333;exitDx=0;exitDy=0;exitPerimeter=0;entryX=0;entryY=0.5;entryDx=0;entryDy=0;" edge="1" parent="1" source="VL6FZ6M-wxKTbL_TC3Xj-1" target="VL6FZ6M-wxKTbL_TC3Xj-10">
          <mxGeometry width="50" height="50" relative="1" as="geometry">
            <mxPoint x="310" y="470" as="sourcePoint" />
            <mxPoint x="360" y="420" as="targetPoint" />
          </mxGeometry>
        </mxCell>
        <mxCell id="cLPIgAtYv4cvL5bpsOwm-13" value="" style="endArrow=classic;html=1;rounded=0;entryX=1;entryY=0.5;entryDx=0;entryDy=0;exitX=0;exitY=0.3333333333333333;exitDx=0;exitDy=0;exitPerimeter=0;" edge="1" parent="1" source="VL6FZ6M-wxKTbL_TC3Xj-3" target="VL6FZ6M-wxKTbL_TC3Xj-14">
          <mxGeometry width="50" height="50" relative="1" as="geometry">
            <mxPoint x="320" y="480" as="sourcePoint" />
            <mxPoint x="370" y="430" as="targetPoint" />
          </mxGeometry>
        </mxCell>
        <mxCell id="cLPIgAtYv4cvL5bpsOwm-14" value="" style="endArrow=classic;html=1;rounded=0;exitX=0;exitY=0.3333333333333333;exitDx=0;exitDy=0;exitPerimeter=0;entryX=1;entryY=0.5;entryDx=0;entryDy=0;" edge="1" parent="1" source="VL6FZ6M-wxKTbL_TC3Xj-3" target="VL6FZ6M-wxKTbL_TC3Xj-10">
          <mxGeometry width="50" height="50" relative="1" as="geometry">
            <mxPoint x="330" y="490" as="sourcePoint" />
            <mxPoint x="380" y="440" as="targetPoint" />
          </mxGeometry>
        </mxCell>
        <mxCell id="cLPIgAtYv4cvL5bpsOwm-15" value="" style="endArrow=classic;html=1;rounded=0;exitX=0;exitY=0.3333333333333333;exitDx=0;exitDy=0;exitPerimeter=0;entryX=1;entryY=0.5;entryDx=0;entryDy=0;" edge="1" parent="1" source="VL6FZ6M-wxKTbL_TC3Xj-3" target="VL6FZ6M-wxKTbL_TC3Xj-11">
          <mxGeometry width="50" height="50" relative="1" as="geometry">
            <mxPoint x="340" y="500" as="sourcePoint" />
            <mxPoint x="390" y="450" as="targetPoint" />
          </mxGeometry>
        </mxCell>
        <mxCell id="cLPIgAtYv4cvL5bpsOwm-16" value="" style="endArrow=classic;html=1;rounded=0;entryX=1;entryY=0.5;entryDx=0;entryDy=0;" edge="1" parent="1" source="VL6FZ6M-wxKTbL_TC3Xj-23" target="VL6FZ6M-wxKTbL_TC3Xj-13">
          <mxGeometry width="50" height="50" relative="1" as="geometry">
            <mxPoint x="350" y="510" as="sourcePoint" />
            <mxPoint x="400" y="460" as="targetPoint" />
          </mxGeometry>
        </mxCell>
        <mxCell id="cLPIgAtYv4cvL5bpsOwm-17" value="" style="endArrow=classic;html=1;rounded=0;entryX=1;entryY=0.5;entryDx=0;entryDy=0;exitX=0;exitY=0.3333333333333333;exitDx=0;exitDy=0;exitPerimeter=0;" edge="1" parent="1" source="VL6FZ6M-wxKTbL_TC3Xj-23" target="VL6FZ6M-wxKTbL_TC3Xj-6">
          <mxGeometry width="50" height="50" relative="1" as="geometry">
            <mxPoint x="660" y="611" as="sourcePoint" />
            <mxPoint x="630" y="590" as="targetPoint" />
          </mxGeometry>
        </mxCell>
        <mxCell id="cLPIgAtYv4cvL5bpsOwm-18" value="" style="endArrow=classic;html=1;rounded=0;entryX=0;entryY=0.5;entryDx=0;entryDy=0;exitX=1;exitY=0.3333333333333333;exitDx=0;exitDy=0;exitPerimeter=0;" edge="1" parent="1" source="VL6FZ6M-wxKTbL_TC3Xj-16" target="VL6FZ6M-wxKTbL_TC3Xj-6">
          <mxGeometry width="50" height="50" relative="1" as="geometry">
            <mxPoint x="670" y="621" as="sourcePoint" />
            <mxPoint x="640" y="600" as="targetPoint" />
          </mxGeometry>
        </mxCell>
        <mxCell id="cLPIgAtYv4cvL5bpsOwm-19" value="" style="endArrow=classic;html=1;rounded=0;entryX=0;entryY=0.5;entryDx=0;entryDy=0;exitX=1;exitY=0.3333333333333333;exitDx=0;exitDy=0;exitPerimeter=0;" edge="1" parent="1" source="VL6FZ6M-wxKTbL_TC3Xj-22" target="VL6FZ6M-wxKTbL_TC3Xj-6">
          <mxGeometry width="50" height="50" relative="1" as="geometry">
            <mxPoint x="680" y="631" as="sourcePoint" />
            <mxPoint x="650" y="610" as="targetPoint" />
          </mxGeometry>
        </mxCell>
        <mxCell id="cLPIgAtYv4cvL5bpsOwm-20" value="" style="endArrow=classic;html=1;rounded=0;entryX=0;entryY=0.5;entryDx=0;entryDy=0;exitX=1;exitY=0.3333333333333333;exitDx=0;exitDy=0;exitPerimeter=0;" edge="1" parent="1" source="VL6FZ6M-wxKTbL_TC3Xj-16" target="VL6FZ6M-wxKTbL_TC3Xj-12">
          <mxGeometry width="50" height="50" relative="1" as="geometry">
            <mxPoint x="690" y="641" as="sourcePoint" />
            <mxPoint x="660" y="620" as="targetPoint" />
          </mxGeometry>
        </mxCell>
        <mxCell id="cLPIgAtYv4cvL5bpsOwm-21" value="" style="endArrow=classic;html=1;rounded=0;entryX=0;entryY=0.5;entryDx=0;entryDy=0;exitX=1;exitY=0.3333333333333333;exitDx=0;exitDy=0;exitPerimeter=0;" edge="1" parent="1" source="VL6FZ6M-wxKTbL_TC3Xj-22" target="VL6FZ6M-wxKTbL_TC3Xj-12">
          <mxGeometry width="50" height="50" relative="1" as="geometry">
            <mxPoint x="700" y="651" as="sourcePoint" />
            <mxPoint x="670" y="630" as="targetPoint" />
          </mxGeometry>
        </mxCell>
        <mxCell id="cLPIgAtYv4cvL5bpsOwm-22" value="" style="endArrow=classic;html=1;rounded=0;entryX=1;entryY=0.5;entryDx=0;entryDy=0;exitX=0;exitY=0.3333333333333333;exitDx=0;exitDy=0;exitPerimeter=0;" edge="1" parent="1" source="VL6FZ6M-wxKTbL_TC3Xj-21" target="VL6FZ6M-wxKTbL_TC3Xj-12">
          <mxGeometry width="50" height="50" relative="1" as="geometry">
            <mxPoint x="250" y="791" as="sourcePoint" />
            <mxPoint x="410" y="760" as="targetPoint" />
          </mxGeometry>
        </mxCell>
        <mxCell id="cLPIgAtYv4cvL5bpsOwm-23" value="" style="endArrow=classic;html=1;rounded=0;exitX=0.5;exitY=0;exitDx=0;exitDy=0;entryX=0.5;entryY=1;entryDx=0;entryDy=0;" edge="1" parent="1" source="VL6FZ6M-wxKTbL_TC3Xj-32" target="VL6FZ6M-wxKTbL_TC3Xj-48">
          <mxGeometry relative="1" as="geometry">
            <mxPoint x="490" y="370" as="sourcePoint" />
            <mxPoint x="550" y="280" as="targetPoint" />
          </mxGeometry>
        </mxCell>
        <mxCell id="cLPIgAtYv4cvL5bpsOwm-24" value="include" style="edgeLabel;resizable=0;html=1;;align=center;verticalAlign=middle;" connectable="0" vertex="1" parent="cLPIgAtYv4cvL5bpsOwm-23">
          <mxGeometry relative="1" as="geometry" />
        </mxCell>
        <mxCell id="cLPIgAtYv4cvL5bpsOwm-26" value="" style="endArrow=classic;html=1;rounded=0;entryX=0;entryY=1;entryDx=0;entryDy=0;exitX=0.5;exitY=0;exitDx=0;exitDy=0;" edge="1" parent="1" source="VL6FZ6M-wxKTbL_TC3Xj-32" target="VL6FZ6M-wxKTbL_TC3Xj-44">
          <mxGeometry relative="1" as="geometry">
            <mxPoint x="500" y="380" as="sourcePoint" />
            <mxPoint x="560" y="290" as="targetPoint" />
          </mxGeometry>
        </mxCell>
        <mxCell id="cLPIgAtYv4cvL5bpsOwm-27" value="include" style="edgeLabel;resizable=0;html=1;;align=center;verticalAlign=middle;" connectable="0" vertex="1" parent="cLPIgAtYv4cvL5bpsOwm-26">
          <mxGeometry relative="1" as="geometry" />
        </mxCell>
        <mxCell id="cLPIgAtYv4cvL5bpsOwm-28" value="" style="endArrow=classic;html=1;rounded=0;exitX=0.5;exitY=0;exitDx=0;exitDy=0;entryX=0;entryY=0.5;entryDx=0;entryDy=0;" edge="1" parent="1" source="VL6FZ6M-wxKTbL_TC3Xj-32" target="VL6FZ6M-wxKTbL_TC3Xj-38">
          <mxGeometry relative="1" as="geometry">
            <mxPoint x="510" y="390" as="sourcePoint" />
            <mxPoint x="570" y="300" as="targetPoint" />
          </mxGeometry>
        </mxCell>
        <mxCell id="cLPIgAtYv4cvL5bpsOwm-29" value="include" style="edgeLabel;resizable=0;html=1;;align=center;verticalAlign=middle;" connectable="0" vertex="1" parent="cLPIgAtYv4cvL5bpsOwm-28">
          <mxGeometry relative="1" as="geometry" />
        </mxCell>
      </root>
    </mxGraphModel>
  </diagram>
</mxfile>
